HIERARCHY
ROOT root     
{
	OFFSET 0.0000 0.0000 0.0000
	CHANNELS 6 Xposition Yposition Zposition Zrotation Yrotation Xrotation
	JOINT pelvis   
	{
		OFFSET 0.0000 0.0000 0.0000
		CHANNELS 3 Zrotation Yrotation Xrotation
		JOINT thorax   
		{
			OFFSET 0.0000 23.0750 -5.0000
			CHANNELS 3 Zrotation Yrotation Xrotation
			JOINT rclavicle
			{
				OFFSET 0.0000 28.0009 0.0000
				CHANNELS 3 Zrotation Yrotation Xrotation
				JOINT rhumerus 
				{
					OFFSET -18.5725 5.5939 0.0000
					CHANNELS 3 Zrotation Yrotation Xrotation
					JOINT rradius  
					{
						OFFSET -24.8459 0.0000 0.0000
						CHANNELS 3 Zrotation Yrotation Xrotation
						JOINT rhand    
						{
							OFFSET -24.5477 0.0000 0.0000
							CHANNELS 3 Zrotation Yrotation Xrotation
							End Site
							{
								OFFSET -8.1826 0.0000 0.0000
							}
						}
					}
				}
			}
			JOINT lclavicle
			{
				OFFSET 0.0000 28.0009 0.0000
				CHANNELS 3 Zrotation Yrotation Xrotation
				JOINT lhumerus 
				{
					OFFSET 18.5725 5.5939 0.0000
					CHANNELS 3 Zrotation Yrotation Xrotation
					JOINT lradius  
					{
						OFFSET 24.8459 0.0000 0.0000
						CHANNELS 3 Zrotation Yrotation Xrotation
						JOINT lhand    
						{
							OFFSET 24.5477 0.0000 0.0000
							CHANNELS 3 Zrotation Yrotation Xrotation
							End Site
							{
								OFFSET 8.1826 0.0000 0.0000
							}
						}
					}
				}
			}
			JOINT head     
			{
				OFFSET 0.0000 35.2030 0.0000
				CHANNELS 3 Zrotation Yrotation Xrotation
				End Site
				{
					OFFSET 0.0000 11.7343 0.0000
				}
			}
		}
		JOINT rfemur   
		{
			OFFSET -8.2817 0.0000 0.0000
			CHANNELS 3 Zrotation Yrotation Xrotation
			JOINT rtibia   
			{
				OFFSET 0.0000 -43.3627 0.0000
				CHANNELS 3 Zrotation Yrotation Xrotation
				JOINT rfoot    
				{
					OFFSET 0.0000 -38.2947 0.0000
					CHANNELS 3 Zrotation Yrotation Xrotation
					JOINT rtoes    
					{
						OFFSET 0.0000 0.0000 16.6054
						CHANNELS 3 Zrotation Yrotation Xrotation
						End Site
						{
							OFFSET 0.0000 0.0000 5.5351
						}
					}
				}
			}
		}
		JOINT lfemur   
		{
			OFFSET 8.2817 0.0000 0.0000
			CHANNELS 3 Zrotation Yrotation Xrotation
			JOINT ltibia   
			{
				OFFSET 0.0000 -43.3627 0.0000
				CHANNELS 3 Zrotation Yrotation Xrotation
				JOINT lfoot    
				{
					OFFSET 0.0000 -38.2947 0.0000
					CHANNELS 3 Zrotation Yrotation Xrotation
					JOINT ltoes    
					{
						OFFSET 0.0000 0.0000 16.6054
						CHANNELS 3 Zrotation Yrotation Xrotation
						End Site
						{
							OFFSET 0.0000 0.0000 5.5351
						}
					}
				}
			}
		}
	}
}
MOTION
Frames: 11
Frame Time: .0333333
-30.398 83.671 -15.164 52.7881 77.26 70.8453 0 -0 0 0.0379723 -12.6617 -9.47557 23.6133 -14.5036 -8.2611e-05 45.1811 -9.48146 15.6254 -5.32638e-06 87.4814 -5.5651e-06 7.40983 2.51194 0.162704 -26.3348 14.1523 0.000129911 -28.3346 -2.31866 7.33635 180 -78.7656 -180 6.06599 0.764901 0.0404998 -13.1635 1.63705 -1.8173 6.53781 -9.70135 -42.1358 -0 -0 20.1888 1.56375e-05 -14.5297 4.22695 178.906 -6.65892e-07 -5.95776 -6.48574 12.1105 -3.56964 -0 -0 25.0161 1.00346e-06 1.11 10.1869 0.196309 -6.13638e-07 -74.2041 
-29.327 83.336 -14.914 50.8796 76.6669 68.863 0 -0 0 0.305387 -12.1657 -9.87912 23.6206 -14.2148 1.58875e-06 46.1257 -9.66188 13.7769 -0 86.8764 -0 7.19985 2.85956 0.179902 -26.9623 14.3526 0.000163812 -28.3845 -2.18468 6.42134 180 -79.141 -180 6.19855 0.512098 0.0276995 -14.0985 1.36914 -1.30302 6.16621 -9.14786 -42.9537 -0 -0 23.5478 4.84427e-07 -14.1032 2.21649 179.443 -2.62025e-07 -10.7882 -6.40148 12.5727 -3.36835 -0 -0 26.333 1.57464e-07 0.328003 10.6114 0.060401 -5.99199e-08 -76.2379 
-28.26 83.047 -14.627 48.841 76.117 66.697 0 -0 0 0.62995 -11.6843 -10.1907 23.6539 -13.8475 -2.15971e-05 47.2439 -9.72295 11.7443 -4.1779e-06 85.9994 -4.47997e-06 6.90485 3.27251 0.197502 -27.5432 14.5712 2.9883e-05 -28.7347 -2.05757 5.49512 180 -79.69 -180 6.38351 0.289901 0.0161997 -14.9541 1.12105 -0.719093 5.83034 -8.56237 -43.5528 -0 -0 26.7179 2.69058e-06 -13.6308 0.332395 179.919 -2.58977e-08 -14.4353 -6.17679 13.0686 -3.21547 -0 -0 27.8094 6.18815e-07 -0.619196 11.2402 -0.120701 6.85521e-07 -77.9883 
-27.205 82.809 -14.294 46.7295 75.6354 64.4138 0 -0 0 1.02702 -11.2491 -10.4195 23.7228 -13.4178 -0.000101642 48.5147 -9.64112 9.55641 -2.29087e-06 84.9054 -2.5045e-06 6.4755 3.73349 0.211294 -28.0608 14.7997 -2.14335e-05 -29.3953 -1.92731 4.56633 180 -80.4147 180 6.63057 0.124801 0.00719986 -15.6906 0.884804 -0.0631043 5.58642 -7.97391 -43.8874 -0 -0 29.5247 -1.12664e-05 -13.1667 -1.39165 -179.674 1.25283e-06 -17.0347 -5.78663 13.5573 -3.13484 -0 -0 29.4535 -5.64965e-06 -1.7111 12.0638 -0.357696 4.4889e-06 -79.27 
-26.173 82.627 -13.91 44.6002 75.2483 62.084 0 -0 0 1.4987 -10.8938 -10.5855 23.8357 -12.9501 0.000105967 49.9028 -9.39645 7.25919 -0 83.5867 -0 5.8496 4.22365 0.215898 -28.5036 15.0288 3.59508e-05 -30.3537 -1.78511 3.6434 180 -81.2808 180 6.94912 0.0380999 0.00230002 -16.2707 0.648702 0.664099 5.47324 -7.41496 -43.9434 -0 -0 31.854 5.67267e-06 -12.7525 -2.94241 -179.334 2.53946e-06 -18.7324 -5.22891 13.9881 -3.15542 -0 -0 31.2598 -6.43464e-06 -2.8991 13.0501 -0.655106 9.1192e-07 -79.9039 
-25.17 82.502 -13.48 42.553 74.9556 59.8227 0 -0 0 2.02269 -10.6473 -10.7109 24.0024 -12.4756 0.000140825 51.3665 -8.9821 4.91922 1.65853e-06 82.1091 1.44457e-06 4.95442 4.72304 0.204398 -28.8559 15.2484 0.000171473 -31.5859 -1.61981 2.73538 180 -82.2752 -180 7.34647 0.0448999 0.00289992 -16.6604 0.398203 1.45785 5.50385 -6.92431 -43.7335 -0 -0 33.6568 -1.38645e-05 -12.4147 -4.31711 -179.051 3.49768e-06 -19.6555 -4.5288 14.305 -3.29668 -0 -0 33.2078 5.66554e-06 -4.10485 14.1522 -1.00529 -4.42186e-06 -79.7386 
-24.202 82.431 -13.009 40.6764 74.7629 57.727 0 -0 0 2.56321 -10.5321 -10.8145 24.2273 -12.0247 -5.79004e-05 52.8614 -8.40459 2.61347 -0 80.5257 -0 3.71535 5.21274 0.169201 -29.1078 15.4458 0.000129515 -33.0427 -1.41983 1.85145 180 -83.3707 -180 7.82896 0.151696 0.0103995 -16.8329 0.117802 2.30829 5.66624 -6.53334 -43.2799 -0 -0 34.9261 1.51377e-05 -12.171 -5.51394 -178.813 1.26188e-06 -19.9255 -3.72847 14.4623 -3.56938 -0 -0 35.2649 -5.43913e-06 -5.23267 15.3077 -1.38501 1.68163e-06 -78.6784 
-23.268 82.412 -12.507 39.065 74.6616 55.8973 0 -0 0 3.07737 -10.5618 -10.9102 24.5125 -11.6254 -4.27365e-05 54.3442 -7.68234 0.429096 0 78.9019 0 2.06407 5.67424 0.102303 -29.2558 15.6124 4.05274e-05 -34.6612 -1.18075 1.00422 180 -84.5246 -180 8.3976 0.356404 0.0262003 -16.7736 -0.208115 3.19913 5.92976 -6.26228 -42.6125 -0 -0 35.6887 -2.04167e-05 -12.0233 -6.53062 -178.612 -7.62309e-06 -19.6654 -2.87966 14.4263 -3.97529 -0 -0 37.3934 -2.50089e-05 -6.17921 16.4429 -1.75529 6.51224e-06 -76.7155 
-22.367 82.438 -11.986 37.7993 74.6396 54.4152 0 -0 0 3.5235 -10.7377 -11.007 24.8526 -11.3023 -5.29464e-05 55.7743 -6.84616 -1.54951 -0 77.2805 -0 -0.0429998 6.0871 -0.00230001 -29.3047 15.7336 -8.94846e-05 -36.3687 -0.888199 0.2057 180 -85.7197 -180 9.04583 0.648296 0.0512998 -16.4821 -0.592591 4.10963 6.25252 -6.11634 -41.7646 -0 -0 35.9918 -1.48048e-05 -11.9662 -7.36673 -178.443 6.2952e-06 -19.0241 -2.03434 14.1827 -4.50887 -0 -0 39.5528 1.28148e-05 -6.84645 17.4857 -2.06606 -4.67992e-05 -73.9136 
-21.496 82.505 -11.452 36.8968 74.6892 53.2975 0 -0 0 3.88406 -11.0486 -11.1053 25.2368 -11.0685 -1.72155e-05 57.1123 -5.93522 -3.24362 0 75.7291 0 -2.61539 6.42248 -0.146799 -29.2736 15.8139 -4.70021e-05 -38.0838 -0.555997 -0.521112 180 -86.9129 -180 9.75853 1.00871 0.0860996 -15.9722 -1.04521 5.01162 6.59866 -6.07361 -40.7596 -0 -0 35.8889 -1.22263e-05 -11.9939 -8.02258 -178.302 5.28554e-06 -18.1814 -1.2213 13.7452 -5.15824 -0 -0 41.7082 -1.7263e-05 -7.16006 18.3839 -2.2688 -1.02101e-06 -70.5184 
-20.651 82.606 -10.918 36.4051 74.7785 52.5935 0 -0 0 4.12304 -11.4734 -11.2067 25.651 -10.9366 2.25816e-05 58.3356 -4.9848 -4.59043 0 74.2811 0 -5.6039 6.64716 -0.325697 -29.1766 15.8403 0.000104369 -39.7329 -0.164387 -1.15919 180 -88.0991 -180 10.5083 1.41397 0.13 -15.2703 -1.57191 5.87948 6.91559 -6.11419 -39.6412 -0 -0 35.46 2.77534e-05 -12.082 -8.5095 -178.186 -3.93358e-06 -17.3233 -0.491482 13.1269 -5.91143 -0 -0 43.8202 -5.24245e-05 -7.05665 19.0927 -2.31866 -2.99313e-05 -66.7014 
